<svg width="10" height="10" viewBox="0 0 10 10" fill="none" xmlns="http://www.w3.org/2000/svg">
<path d="M5.307 0.104996C5.21923 0.0367187 5.1112 -0.000350952 5 -0.000350952C4.8888 -0.000350952 4.78077 0.0367187 4.693 0.104996L0.579 3.305C0.39858 3.44534 0.252622 3.62507 0.152274 3.83045C0.0519256 4.03582 -0.000158225 4.26142 3.61066e-07 4.49V9C3.61066e-07 9.26521 0.105357 9.51957 0.292894 9.7071C0.48043 9.89464 0.734784 10 1 10H3C3.26522 10 3.51957 9.89464 3.70711 9.7071C3.89464 9.51957 4 9.26521 4 9V6H6V9C6 9.26521 6.10536 9.51957 6.29289 9.7071C6.48043 9.89464 6.73478 10 7 10H9C9.26522 10 9.51957 9.89464 9.70711 9.7071C9.89464 9.51957 10 9.26521 10 9V4.49C10 4.26133 9.9478 4.03569 9.84728 3.83031C9.74675 3.62492 9.6006 3.44524 9.42 3.305L5.307 0.104996V0.104996Z" fill="#3B82F6"/>
</svg>
